#!OML:ASF H:\Terrain\Patient Classification 1\Takeo\Monday\TakeoMonday.ASF
:FULLY-SPECIFIED
:DEGREES
629
root 8.81617 17.815 1.25737 -8.41893 28.5108 -8.53403
lowerback 9.96946 0.189483 5.87382
upperback 1.11287 0.714793 -4.31095
thorax -4.30652 0.228222 -8.00625
lowerneck -15.7533 -12.204 -2.91523
upperneck -14.3683 -15.3174 1.47997
head -1.75572 -7.33283 0.423279
rclavicle -4.67144e-015 1.74931e-014
rhumerus 79.7424 -28.7239 -39.958
rradius 22.1738
rwrist 3.98881
rhand -40.3183 39.2606
rfingers 7.12502
rthumb -13.2746 9.70338
lclavicle -4.67144e-015 1.74931e-014
lhumerus -40.4624 12.2604 76.553
lradius 38.2973
lwrist 30.8465
lhand -32.5693 13.3764
lfingers 7.12502
lthumb -5.79844 43.2771
rfemur 3.3535 -9.25195 26.7314
rtibia 10.4975
rfoot -9.92298 -20.8116
rtoes 3.45933
lfemur 4.07101 -8.84113 -11.183
ltibia 21.9186
lfoot -17.0091 14.2303
ltoes -10.9175
630
root 8.81622 17.8121 1.26116 -8.48926 28.4795 -8.53411
lowerback 9.89024 0.224874 5.83495
upperback 1.09718 0.753877 -4.31833
thorax -4.27213 0.24926 -7.99463
lowerneck -15.8215 -12.2204 -2.86989
upperneck -14.1793 -15.3507 1.32226
head -1.69955 -7.35296 0.357309
rclavicle -2.36554e-014 4.77083e-015
rhumerus 79.4677 -28.6811 -39.6857
rradius 22.3796
rwrist 3.71386
rhand -40.2667 38.9334
rfingers 7.12502
rthumb -13.2249 9.3729
lclavicle -2.36554e-014 4.77083e-015
lhumerus -40.3241 12.753 76.4316
lradius 38.0344
lwrist 30.6425
lhand -33.0196 14.4478
lfingers 7.12502
lthumb -6.23317 44.3361
rfemur 3.42554 -9.18468 26.7264
rtibia 10.4699
rfoot -9.90644 -20.9129
rtoes 4.13199
lfemur 4.1862 -8.82549 -11.1861
ltibia 21.9425
lfoot -17.0602 14.2421
ltoes -9.47949
631
root 8.8152 17.8033 1.26161 -8.43058 28.4794 -8.32441
lowerback 9.80787 0.24635 5.56538
upperback 1.07498 0.748887 -4.34061
thorax -4.25363 0.251467 -7.85854
lowerneck -15.8315 -12.1462 -2.77014
upperneck -14.1096 -15.2815 1.09152
head -1.70259 -7.32286 0.275205
rclavicle 2.18663e-015 -3.02153e-014
rhumerus 79.7308 -28.536 -40.2966
rradius 22.5481
rwrist 3.93279
rhand -39.6996 38.5076
rfingers 7.12502
rthumb -12.6782 8.91247
lclavicle 2.18663e-015 -3.02153e-014
lhumerus -40.4135 12.9268 76.4462
lradius 38.2072
lwrist 30.8907
lhand -32.9278 15.3443
lfingers 7.12502
lthumb -6.14453 45.2352
rfemur 3.31927 -9.11983 26.518
rtibia 10.7252
rfoot -10.0863 -21.0125
rtoes 4.78804
lfemur 4.30664 -8.84911 -11.4069
ltibia 21.8586
lfoot -16.9863 14.345
ltoes -8.95475
632
root 8.81446 17.7968 1.25986 -8.30134 28.5662 -8.00371
lowerback 9.74699 0.292521 5.30359
upperback 1.04213 0.774774 -4.47103
thorax -4.25149 0.267365 -7.84978
lowerneck -15.7931 -12.0429 -2.55894
upperneck -14.0575 -15.1945 0.825423
head -1.72938 -7.28811 0.171542
rclavicle 2.26615e-014 -2.38542e-014
rhumerus 79.4451 -28.5409 -40.2067
rradius 22.7658
rwrist 3.75206
rhand -39.7028 38.559
rfingers 7.12502
rthumb -12.6813 8.96398
lclavicle 2.26615e-014 -2.38542e-014
lhumerus -40.6923 12.5561 76.5173
lradius 38.7136
lwrist 31.5556
lhand -32.4661 14.5342
lfingers 7.12502
lthumb -5.69875 44.4376
rfemur 3.20419 -9.18349 26.1725
rtibia 11.0228
rfoot -10.4491 -20.9185
rtoes 5.14013
lfemur 4.35023 -8.97276 -11.7674
ltibia 21.7647
lfoot -16.8226 14.548
ltoes -9.74028
633
root 8.81055 17.7949 1.25808 -8.32039 28.6313 -7.83942
lowerback 9.75568 0.329276 5.16793
upperback 1.07911 0.80691 -4.56252
thorax -4.21238 0.28823 -7.87362
lowerneck -16.1312 -11.8839 -2.54637
upperneck -13.5522 -14.969 0.742025
head -1.52089 -7.18436 0.112925
rclavicle -1.5704e-014 2.38542e-014
rhumerus 79.08 -28.6402 -39.8408
rradius 22.9735
rwrist 3.50136
rhand -39.9175 38.6916
rfingers 7.12502
rthumb -12.8882 9.10952
lclavicle -1.5704e-014 2.38542e-014
lhumerus -40.7967 12.1903 76.6122
lradius 39.0329
lwrist 31.896
lhand -32.2996 13.8489
lfingers 7.12502
lthumb -5.53804 43.7565
rfemur 3.26905 -9.16503 26.0108
rtibia 11.126
rfoot -10.6817 -20.925
rtoes 5.19504
lfemur 4.41209 -9.00516 -11.9447
ltibia 21.7552
lfoot -16.6837 14.6306
ltoes -10.3194
634
root 8.80557 17.7967 1.25663 -8.4567 28.6898 -8.01334
lowerback 9.70902 0.320047 5.27308
upperback 1.12742 0.807173 -4.50157
thorax -4.13467 0.291596 -7.86613
lowerneck -16.4439 -11.8215 -2.74079
upperneck -13.1222 -14.8334 0.789038
head -1.31698 -7.11524 0.123293
rclavicle 6.55989e-015 6.36111e-015
rhumerus 78.9882 -28.6618 -39.7039
rradius 23.2484
rwrist 3.38054
rhand -40.1197 38.5984
rfingers 7.12502
rthumb -13.0832 9.02878
lclavicle 6.55989e-015 6.36111e-015
lhumerus -40.7449 12.0701 76.7093
lradius 39.0588
lwrist 31.8021
lhand -32.332 14.1141
lfingers 7.12502
lthumb -5.56927 44.0209
rfemur 3.45372 -9.14409 26.1941
rtibia 10.9157
rfoot -10.6946 -21.0215
rtoes 4.91469
lfemur 4.36129 -8.98354 -11.7476
ltibia 21.8721
lfoot -16.6659 14.546
ltoes -11.137
